# xmcd CD database file
#
# Track frame offsets:
#	150
#	21663
#	48123
#	72348
#
# Disc length: 1256 seconds
#
# Revision: 0
# Processed by: cddbd v1.5PL3 Copyright (c) Steve Scherf et al.
# Submitted via: CDex 1.51
#
DISCID=3204e604
DTITLE=CHAGE and ASKA - Seamless Singles
DYEAR=2004
DGENRE=JPop
TTITLE0=SAY YES
TTITLE1=めぐり逢い
TTITLE2=僕はこの瞳で嘘をつく
TTITLE3=YAH YAH YAH
EXTD=YEAR: 2004
EXTT0=
EXTT1=
EXTT2=
EXTT3=
PLAYORDER=
